<?xml version="1.0" encoding="UTF-8" standalone="no"?><!DOCTYPE svg PUBLIC "-//W3C//DTD SVG 1.1//EN" "http://www.w3.org/Graphics/SVG/1.1/DTD/svg11.dtd"><svg width="100%" height="100%" viewBox="0 0 417 417" version="1.1" xmlns="http://www.w3.org/2000/svg" xmlns:xlink="http://www.w3.org/1999/xlink" xml:space="preserve" xmlns:serif="http://www.serif.com/" style="fill-rule:evenodd;clip-rule:evenodd;stroke-linejoin:round;stroke-miterlimit:2;"><g id="_25-dollar-chip" serif:id="25 dollar chip"><circle id="background" cx="208.333" cy="208.333" r="208.333" style="fill:#00a300;"/><circle id="background1" serif:id="background" cx="208.333" cy="208.333" r="201.078" style="fill:#ebebeb;"/><path id="background2" serif:id="background" d="M124.775,303.85l0.63,-0.764c17.816,15.606 40.072,26.267 64.625,29.843l5.706,0.698l0.004,75.784c-45.24,-2.79 -86.441,-20.51 -118.735,-48.295l-5.024,-4.47l52.794,-52.796l0.63,-0.764l-0.63,0.764Zm169.947,-3.909l51.486,51.483c0.673,0.673 1.403,1.253 2.2,1.711c-31.846,30.813 -73.827,51.215 -120.457,55.721l-7.029,0.556l0.008,-75.785c28.448,-2.826 54.111,-15.12 73.792,-33.686Zm-212.305,-79.016l0.619,-0.035c2.172,21.945 9.979,42.234 21.954,59.4l3.368,4.603l-1.39,1.15l-52.427,52.436c-25.693,-30.331 -42.575,-68.364 -46.693,-110.146l-0.593,-7.411l75.162,0.003l0.619,-0.035l-0.619,0.035Zm251.214,-0.035l0.618,0.035l75.163,-0.003c-2.498,40.517 -16.972,77.794 -39.925,108.335l-4.402,5.646l-1.07,-1.287l-52.752,-52.736c12.208,-17.29 20.17,-37.793 22.368,-59.99Zm-125.298,-113.289c55.633,-0 100.733,45.099 100.733,100.732c0,55.633 -45.1,100.733 -100.733,100.733c-55.633,0 -100.732,-45.1 -100.732,-100.733c-0,-55.633 45.099,-100.732 100.732,-100.732Zm-153.809,-29.393l52.444,52.415l1.39,1.151c-12.72,16.585 -21.406,36.428 -24.591,58.06l-0.731,5.943l-0.619,-0.035l-75.162,-0.002c2.756,-44.681 20.075,-85.421 47.269,-117.532Zm251.705,50.928l53.596,-53.617c27.025,30.8 44.806,69.912 49.012,113.003l0.574,7.218l-75.162,0.002l-0.618,0.035c-2.295,-23.185 -10.879,-44.52 -24.022,-62.277l-3.38,-4.364l53.596,-53.617l-53.596,53.617Zm-110.489,-121.881l0.002,75.162c-0,0.218 0.005,0.434 0.035,0.619c-26.826,2.656 -51.176,13.73 -70.304,30.537l-0.34,-0.384l-0.358,-0.373l-52.794,-52.796c32.992,-30.347 76.137,-49.828 123.759,-52.765Zm25.185,75.162l-0.003,-75.162c43.938,2.709 84.065,19.501 115.924,45.917l5.233,4.492l-53.574,53.57c-17.305,-14.304 -38.499,-24.072 -61.758,-27.48l-5.857,-0.718l0.035,-0.619l-0.003,-75.162l0.003,75.162Z" style="fill:#00a300;fill-rule:nonzero;"/><circle id="dot-accent" cx="144.468" cy="60.108" r="10.106" style="fill:#ebebeb;"/><circle id="dot-accent1" serif:id="dot-accent" cx="269.932" cy="60.108" r="10.106" style="fill:#ebebeb;"/><circle id="dot-accent2" serif:id="dot-accent" cx="361.368" cy="148.27" r="10.106" style="fill:#ebebeb;"/><circle id="dot-accent3" serif:id="dot-accent" cx="361.368" cy="267.491" r="10.106" style="fill:#ebebeb;"/><circle id="dot-accent4" serif:id="dot-accent" cx="269.932" cy="359.097" r="10.106" style="fill:#ebebeb;"/><circle id="dot-accent5" serif:id="dot-accent" cx="144.468" cy="359.097" r="10.106" style="fill:#ebebeb;"/><circle id="dot-accent6" serif:id="dot-accent" cx="59.139" cy="267.491" r="10.106" style="fill:#ebebeb;"/><circle id="dot-accent7" serif:id="dot-accent" cx="59.139" cy="148.27" r="10.106" style="fill:#ebebeb;"/><g id="dollar-amount" serif:id="dollar amount" transform="matrix(0.64714,0,0,1,-170.591,1.13687e-13)"><text x="510.977px" y="255.203px" style="font-family:'Arial-BoldMT', 'Arial', sans-serif;font-weight:700;font-size:134.715px;fill:#fff;">25</text></g></g></svg>